# xmcd
#
# Track frame offsets: 
#        150
#        15242
#        31522
#        49287
#        64940
#        77605
#        88897
#        100830
#        114184
#        131694
#        144622
#        160554
#        176242
#        192292
#        204100
#        218102
#
# Disc length: 3027 seconds
#
# Revision: 1
# Processed by: cddbd v1.5.2PL0 Copyright (c) Steve Scherf et al.
# Submitted via: ExactAudioCopy v1.0b3
#
DISCID=cd0bd110
DTITLE=Floyd Jones - Eddie Taylor - Masters of Modern Blues
DYEAR=1994
DGENRE=Blues
TTITLE0=Rising Wind
TTITLE1=Dark Road
TTITLE2=Stockyard Blues
TTITLE3=Sweet Talkin' Woman
TTITLE4=Train Fare Home
TTITLE5=Big Town Playboy
TTITLE6=Peach Tree Blues
TTITLE7=Bad Boy
TTITLE8=Hard Times
TTITLE9=M&O Blues
TTITLE10=Playhouse Blues
TTITLE11=Dark Road
TTITLE12=Feel So Bad
TTITLE13=After Hours
TTITLE14=Take Your Hand Down
TTITLE15=Bad Boy
EXTD=
EXTT0=
EXTT1=
EXTT2=
EXTT3=
EXTT4=
EXTT5=
EXTT6=
EXTT7=
EXTT8=
EXTT9=
EXTT10=
EXTT11=
EXTT12=
EXTT13=
EXTT14=
EXTT15=
PLAYORDER=
